<svg width="32" height="32" viewBox="0 0 32 32" fill="none" xmlns="http://www.w3.org/2000/svg">
<g clip-path="url(#clip0_216_1628)">
<mask id="mask0_216_1628" style="mask-type:luminance" maskUnits="userSpaceOnUse" x="0" y="0" width="32" height="32">
<path d="M32 0H0V32H32V0Z" fill="white"/>
</mask>
<g mask="url(#mask0_216_1628)">
<path d="M16.0008 4.11426C14.3035 4.11426 12.6756 4.78854 11.4754 5.98877C10.2751 7.18901 9.60084 8.81687 9.60084 10.5143V11.2194C9.28132 11.2734 8.99124 11.4388 8.78204 11.6863C8.57284 11.9338 8.45804 12.2473 8.45798 12.5714V14.1714C8.45795 14.5015 8.57698 14.8205 8.79321 15.0699C9.00944 15.3193 9.30837 15.4824 9.63512 15.5291C9.75057 16.6202 10.1444 17.6633 10.7787 18.5584C11.4131 19.4535 12.2668 20.1707 13.258 20.6411V22.744H12.8008C10.6185 22.744 8.52551 23.6109 6.98236 25.1541C5.4392 26.6972 4.57227 28.7902 4.57227 30.9725V32.0011H27.4294V30.9725C27.4294 28.7902 26.5625 26.6972 25.0193 25.1541C23.4762 23.6109 21.3832 22.744 19.2008 22.744H18.7437V20.6423C19.7349 20.1718 20.5886 19.4547 21.2229 18.5595C21.8573 17.6644 22.2511 16.6213 22.3666 15.5303C22.6935 15.4835 22.9926 15.3203 23.2088 15.0706C23.4251 14.821 23.544 14.5017 23.5437 14.1714V12.5714C23.5436 12.2473 23.4288 11.9338 23.2196 11.6863C23.0104 11.4388 22.7204 11.2734 22.4008 11.2194V10.5143C22.4008 8.81687 21.7266 7.18901 20.5263 5.98877C19.3261 4.78854 17.6982 4.11426 16.0008 4.11426Z" fill="#FFDBB4"/>
<path d="M13.2578 20.6411V21.5554C14.1149 21.9622 15.0519 22.1727 16.0007 22.1714C16.9824 22.1714 17.9127 21.9508 18.7435 21.5554V20.6411C17.8865 21.048 16.9494 21.2584 16.0007 21.2571C15.0519 21.2584 14.1149 21.048 13.2578 20.6411Z" fill="black" fill-opacity="0.1"/>
<path d="M16.058 25.3518C18.1723 25.3518 19.8866 24.2524 19.8866 22.897C19.8866 22.8558 19.8854 22.817 19.882 22.7758C21.9393 22.9467 23.8572 23.8846 25.2552 25.4036C26.6533 26.9225 27.4293 28.9114 27.4294 30.9758V31.9998H4.57227V30.977C4.57226 28.8925 5.36331 26.8858 6.78566 25.362C8.208 23.8383 10.1556 22.9111 12.2351 22.7678C12.2317 22.8101 12.2294 22.8535 12.2294 22.897C12.2294 24.2524 13.9437 25.3518 16.058 25.3518Z" fill="#E6E6E6"/>
<path d="M16.0584 26.1438C18.5602 26.1438 20.5876 24.7667 20.5876 23.0684C20.5876 22.9998 20.5853 22.9313 20.5784 22.8627C20.3499 22.825 20.1179 22.7953 19.8813 22.7758C19.8859 22.8158 19.887 22.8558 19.887 22.897C19.887 24.2524 18.1727 25.3518 16.0584 25.3518C13.9442 25.3518 12.2299 24.2513 12.2299 22.897C12.2299 22.8535 12.2322 22.8101 12.2356 22.7678C12.0002 22.7838 11.7693 22.809 11.5407 22.8444C11.5327 22.9187 11.5293 22.993 11.5293 23.0684C11.5293 24.7667 13.5567 26.1438 16.0584 26.1438Z" fill="black" fill-opacity="0.16"/>
<path d="M12.4328 22.7564L12.458 22.6284C12.1197 22.6341 11.7723 22.7427 11.7723 22.7427L11.7243 22.8181C9.74527 23.0795 7.92875 24.0513 6.613 25.5525C5.29726 27.0537 4.57199 28.9819 4.57227 30.9781V31.9998H13.0294C13.0294 31.9998 11.8066 26.1073 12.4306 22.7656L12.4328 22.7564ZM18.9723 31.9998C18.9723 31.9998 20.2294 25.9427 19.5437 22.6284C19.882 22.6341 20.2294 22.7427 20.2294 22.7427L20.2774 22.8181C22.2564 23.0795 24.0729 24.0513 25.3887 25.5525C26.7044 27.0537 27.4297 28.9819 27.4294 30.9781V31.9998H18.9723Z" fill="#FFFFB1"/>
<path fill-rule="evenodd" clip-rule="evenodd" d="M12.4577 22.6284C11.772 25.9427 13.0292 31.9998 13.0292 31.9998H11.2006L9.60059 27.8856L10.2863 26.857L9.60059 26.1713L11.772 22.7427C11.772 22.7427 12.1194 22.6341 12.4577 22.6284ZM19.5434 22.6284C20.2292 25.9427 18.972 31.9998 18.972 31.9998H20.8006L22.4006 27.8856L21.7149 26.857L22.4006 26.1713L20.2292 22.7427C20.2292 22.7427 19.8817 22.6341 19.5434 22.6284Z" fill="black" fill-opacity="0.15"/>
<path d="M21.877 29.2306L21.9764 28.9746L22.693 28.4374C22.7732 28.3776 22.8709 28.3457 22.9711 28.3467C23.0712 28.3477 23.1682 28.3816 23.2472 28.4432L24.0015 29.0283L21.877 29.2306Z" fill="#E6E6E6"/>
<path d="M14.4004 17.1429C14.4004 17.7566 15.1044 18.1714 16.0004 18.1714C16.8964 18.1714 17.6004 17.7566 17.6004 17.1429C17.6004 17.0172 17.4918 16.9143 17.3718 16.9143C17.2232 16.9143 17.1581 17.0172 17.1432 17.1429C17.0015 17.4789 16.6495 17.6823 16.0004 17.7143C15.3512 17.6823 14.9992 17.4789 14.8575 17.1429C14.8427 17.0172 14.7775 16.9143 14.629 16.9143C14.509 16.9143 14.4004 17.0172 14.4004 17.1429Z" fill="black" fill-opacity="0.6"/>
<path fill-rule="evenodd" clip-rule="evenodd" d="M14.6289 14.8572C14.6289 15.3623 15.2426 15.7715 16.0003 15.7715C16.758 15.7715 17.3718 15.3623 17.3718 14.8572" fill="black" fill-opacity="0.16"/>
<path d="M13.5429 13.7943L12.9143 13.1658L12.2857 13.7943C12.24 13.8401 12.16 13.8401 12.1029 13.7943L11.92 13.6115C11.8743 13.5658 11.8743 13.4858 11.92 13.4286L12.5486 12.8001L11.92 12.1715C11.8743 12.1143 11.8743 12.0343 11.92 11.9886L12.1029 11.8058C12.1486 11.7601 12.2286 11.7601 12.2857 11.8058L12.9143 12.4343L13.5429 11.8058C13.5886 11.7601 13.6686 11.7601 13.7257 11.8058L13.9086 11.9886C13.9543 12.0343 13.9543 12.1143 13.9086 12.1715L13.28 12.8001L13.9086 13.4286C13.9543 13.4743 13.9543 13.5543 13.9086 13.6115L13.7257 13.7943C13.68 13.8401 13.6 13.8401 13.5429 13.7943ZM19.7143 13.7943L19.0857 13.1658L18.4572 13.7943C18.4115 13.8401 18.3315 13.8401 18.2743 13.7943L18.0915 13.6115C18.0457 13.5658 18.0457 13.4858 18.0915 13.4286L18.72 12.8001L18.0915 12.1715C18.0457 12.1143 18.0457 12.0343 18.0915 11.9886L18.2743 11.8058C18.32 11.7601 18.4 11.7601 18.4572 11.8058L19.0857 12.4343L19.7143 11.8058C19.76 11.7601 19.84 11.7601 19.8972 11.8058L20.08 11.9886C20.1257 12.0343 20.1257 12.1143 20.08 12.1715L19.4515 12.8001L20.08 13.4286C20.1257 13.4743 20.1257 13.5543 20.08 13.6115L19.8972 13.7943C19.8515 13.8401 19.7715 13.8401 19.7143 13.7943Z" fill="black" fill-opacity="0.6"/>
<path fill-rule="evenodd" clip-rule="evenodd" d="M20.5865 10.24C20.7534 10.304 21.6368 10.9749 21.4848 11.2869C21.4785 11.3001 21.4691 11.3117 21.4574 11.3205C21.4457 11.3294 21.4321 11.3353 21.4176 11.3377C21.4032 11.3402 21.3883 11.3392 21.3744 11.3347C21.3604 11.3302 21.3477 11.3224 21.3374 11.312C21.2772 11.2605 21.2121 11.2149 21.1431 11.176C20.5602 10.8515 19.8517 10.9555 19.2311 11.072C18.5317 11.2023 17.8471 11.4698 17.1294 11.3772C16.8962 11.3475 16.4345 11.2378 16.2574 11.0389C16.2037 10.9783 16.2505 10.8812 16.3305 10.8755C16.4951 10.8629 16.6574 10.7772 16.8254 10.7292C17.2425 10.6115 17.6711 10.5509 18.0951 10.4675C18.8517 10.3189 19.8288 9.94975 20.5865 10.2389V10.24Z" fill="#DADADA"/>
<path fill-rule="evenodd" clip-rule="evenodd" d="M16.3164 10.8298C16.1826 10.8343 15.9964 11.2366 16.2524 11.2503C16.5072 11.2629 16.4501 10.8252 16.3164 10.8298ZM15.8866 10.8343C15.8866 10.8332 15.8866 10.8332 15.8866 10.8343V10.8343ZM11.4158 10.2355C11.2489 10.2995 10.3655 10.9703 10.5175 11.2823C10.5449 11.3395 10.6192 11.3509 10.6649 11.3075C10.7278 11.248 10.8455 11.1806 10.8604 11.1726C11.4432 10.848 12.1518 10.952 12.7724 11.0686C13.4718 11.1989 14.1564 11.4663 14.8741 11.3738C15.1072 11.344 15.5689 11.2343 15.7461 11.0355C15.7998 10.9749 15.7529 10.8778 15.6729 10.872C15.5084 10.8595 15.3461 10.7738 15.1781 10.7258C14.7609 10.608 14.3324 10.5475 13.9084 10.464C13.1518 10.3155 12.1746 9.94633 11.4169 10.2355H11.4158Z" fill="#DADADA"/>
<path fill-rule="evenodd" clip-rule="evenodd" d="M15.8834 10.719C16.0171 10.7236 16.2 11.2333 15.944 11.2527C15.688 11.2733 15.7497 10.7145 15.8834 10.719Z" fill="#DADADA"/>
<path d="M22.3228 15.8582C26.8462 14.7725 29.9433 12.5565 29.9433 9.99994C29.9433 7.31423 26.5239 5.00337 21.6233 3.98509L21.5879 3.82166C21.3648 2.8034 20.8005 1.89197 19.9883 1.23845C19.1762 0.584941 18.1652 0.228603 17.1228 0.228516H14.9925C13.9501 0.228603 12.939 0.584941 12.1269 1.23845C11.3148 1.89197 10.7504 2.8034 10.5273 3.82166L10.4965 3.95994C5.53305 4.96566 2.05762 7.29137 2.05762 9.99994C2.05762 12.5565 5.15476 14.7725 9.67819 15.8582C9.65533 15.7119 9.63705 15.5634 9.62447 15.4125C9.29998 15.3636 9.0038 15.1999 8.7897 14.9512C8.5756 14.7025 8.45777 14.3853 8.45762 14.0571V12.5714C8.45768 12.2473 8.57248 11.9338 8.78168 11.6863C8.99088 11.4388 9.28095 11.2734 9.60047 11.2194V10.5142C9.60047 9.59994 9.79247 8.72909 10.1376 7.94166C11.1216 6.14852 20.7353 6.05709 21.8702 7.95994C22.221 8.76576 22.4015 9.63536 22.4005 10.5142V11.2194C22.72 11.2734 23.0101 11.4388 23.2193 11.6863C23.4285 11.9338 23.5433 12.2473 23.5433 12.5714V14.0571C23.5435 14.3853 23.4259 14.7026 23.2121 14.9516C22.9982 15.2005 22.7021 15.3644 22.3776 15.4137C22.3645 15.5628 22.3463 15.7115 22.3228 15.8594V15.8582Z" fill="#A7FFC4"/>
<path d="M22.4008 10.5987C22.8408 10.2273 23.0865 9.81012 23.0865 9.37126C23.0865 8.67641 22.4716 8.03983 21.4499 7.54498C21.6373 7.67069 21.7813 7.80783 21.8705 7.95983C22.2213 8.76565 22.4018 9.63525 22.4008 10.5141V10.5987ZM18.7733 6.74155C17.8572 6.58744 16.9297 6.51097 16.0008 6.51298C14.9745 6.51298 13.9985 6.60212 13.1185 6.76098C14.851 6.50955 17.0168 6.49812 18.7733 6.74155ZM10.4796 7.58041C9.50018 8.07069 8.91504 8.69355 8.91504 9.37126C8.91504 9.81126 9.16075 10.2273 9.60075 10.5987V10.5141C9.60075 9.59983 9.79275 8.72898 10.1379 7.94155C10.2237 7.79741 10.3404 7.67408 10.4796 7.58041Z" fill="black" fill-opacity="0.5"/>
<path d="M16.1149 11.4411C14.8532 11.4411 14.6715 10.4034 12.0772 10.256C9.48637 10.1394 8.6658 10.9074 8.66009 11.4411C8.66466 11.9325 8.53209 13.2068 10.2144 14.7005C11.9024 16.4731 13.6315 15.8719 14.2509 15.2925C14.8738 15.0251 15.5824 12.624 16.1138 12.6262C16.6475 12.6285 17.3561 15.0262 17.9789 15.2925C18.5984 15.8719 20.3275 16.4731 22.0167 14.7005C23.6978 13.2068 23.5652 11.9314 23.5687 11.4411C23.5652 10.9085 22.7458 10.1382 20.1515 10.256C17.5584 10.4034 17.3778 11.4411 16.1149 11.4411Z" fill="black" fill-opacity="0.1"/>
<path d="M16.1149 11.2126C14.8532 11.2126 14.6715 10.1749 12.0772 10.0274C9.48637 9.91086 8.6658 10.6789 8.66009 11.2126C8.66466 11.704 8.53209 12.9783 10.2144 14.472C11.9024 16.2446 13.6315 15.6434 14.2509 15.064C14.8738 14.7966 15.5824 12.3954 16.1138 12.3977C16.6475 12.4 17.3561 14.7977 17.9789 15.064C18.5984 15.6434 20.3275 16.2446 22.0167 14.472C23.6978 12.9783 23.5652 11.7029 23.5687 11.2126C23.5652 10.68 22.7458 9.90972 20.1515 10.0274C17.5584 10.1749 17.3778 11.2126 16.1149 11.2126Z" fill="#00B13A"/>
<path d="M11.7664 10.6205C13.3972 10.5873 14.9161 11.5233 14.8726 12.3976C14.8475 12.9748 14.5378 15.0068 12.6989 15.0639C10.8589 15.1211 9.8635 13.0308 9.9035 12.1016C9.92636 11.7005 10.1378 10.6536 11.7664 10.6205ZM20.4635 10.6205C18.8326 10.5873 17.3138 11.5233 17.3572 12.3976C17.3824 12.9748 17.6921 15.0068 19.5309 15.0639C21.3709 15.1211 22.3664 13.0308 22.3264 12.1016C22.3035 11.7005 22.0921 10.6536 20.4635 10.6205Z" fill="#2F383B"/>
</g>
</g>
<defs>
<clipPath id="clip0_216_1628">
<rect width="32" height="32" fill="white"/>
</clipPath>
</defs>
</svg>
